<?xml version="1.0" encoding="UTF-8" standalone="no"?>
<svg
   height="128px"
   viewBox="0 0 128 128"
   width="128px"
   version="1.1"
   id="svg21"
   sodipodi:docname="folder-applications.svg"
   inkscape:version="1.2.2 (b0a8486541, 2022-12-01)"
   xmlns:inkscape="http://www.inkscape.org/namespaces/inkscape"
   xmlns:sodipodi="http://sodipodi.sourceforge.net/DTD/sodipodi-0.dtd"
   xmlns="http://www.w3.org/2000/svg"
   xmlns:svg="http://www.w3.org/2000/svg">
  <defs
     id="defs25" />
  <sodipodi:namedview
     id="namedview23"
     pagecolor="#ffffff"
     bordercolor="#000000"
     borderopacity="0.25"
     inkscape:showpageshadow="2"
     inkscape:pageopacity="0.0"
     inkscape:pagecheckerboard="0"
     inkscape:deskcolor="#d1d1d1"
     showgrid="false"
     inkscape:zoom="5.6328125"
     inkscape:cx="64.355062"
     inkscape:cy="64.443828"
     inkscape:window-width="1920"
     inkscape:window-height="1019"
     inkscape:window-x="0"
     inkscape:window-y="0"
     inkscape:window-maximized="1"
     inkscape:current-layer="svg21" />
  <linearGradient
     id="a"
     gradientTransform="matrix(0.45451 0 0 0.455522 -1210.292114 616.172607)"
     gradientUnits="userSpaceOnUse"
     x1="2689.251953"
     x2="2918.069824"
     y1="-1106.802979"
     y2="-1106.802979">
    <stop
       offset="0"
       stop-color="#7f3fbf"
       id="stop2"
       style="stop-color:#7f3fbf;stop-opacity:1;" />
    <stop
       offset="0.0576991"
       stop-color="#be9ede"
       id="stop4"
       style="stop-color:#be9ede;stop-opacity:1;" />
    <stop
       offset="0.122204"
       stop-color="#7f3fbf"
       id="stop6"
       style="stop-color:#7f3fbf;stop-opacity:1;" />
    <stop
       offset="0.87330598"
       stop-color="#7f3fbf"
       id="stop8"
       style="stop-color:#7f3fbf;stop-opacity:1;" />
    <stop
       offset="0.95599699"
       stop-color="#be9ede"
       id="stop10"
       style="stop-color:#be9ede;stop-opacity:1;" />
    <stop
       offset="1"
       stop-color="#7f3fbf"
       id="stop12"
       style="stop-color:#7f3fbf;stop-opacity:1;" />
  </linearGradient>
  <path
     d="m 21.976562 12 c -5.527343 0 -9.976562 4.460938 -9.976562 10 v 86.03125 c 0 5.542969 4.449219 10 9.976562 10 h 84.042969 c 5.53125 0 9.980469 -4.457031 9.980469 -10 v -72.085938 c 0 -6.628906 -5.359375 -12 -11.972656 -12 h -46.027344 c -2.453125 0 -4.695312 -1.386718 -5.796875 -3.582031 l -1.503906 -2.992187 c -1.65625 -3.292969 -5.019531 -5.371094 -8.699219 -5.371094 z m 0 0"
     fill="#7f3fbf"
     id="path15"
     style="fill:#7f3fbf;fill-opacity:1" />
  <path
     d="m 65.976562 36 c -2.746093 0 -5.226562 1.101562 -7.027343 2.890625 c -2.273438 2.253906 -5.382813 5.109375 -8.632813 5.109375 h -28.339844 c -5.527343 0 -9.976562 4.460938 -9.976562 10 v 54.03125 c 0 5.542969 4.449219 10 9.976562 10 h 84.042969 c 5.53125 0 9.980469 -4.457031 9.980469 -10 v -62.03125 c 0 -5.539062 -4.449219 -10 -9.980469 -10 z m 0 0"
     fill="url(#a)"
     id="path17" />
  <path
     d="m 65.976562 32 c -2.746093 0 -5.226562 1.101562 -7.027343 2.890625 c -2.273438 2.253906 -5.382813 5.109375 -8.632813 5.109375 h -28.339844 c -5.527343 0 -9.976562 4.460938 -9.976562 10 v 55.976562 c 0 5.539063 4.449219 10 9.976562 10 h 84.042969 c 5.53125 0 9.980469 -4.460937 9.980469 -10 v -63.976562 c 0 -5.539062 -4.449219 -10 -9.980469 -10 z m 0 0"
     fill="#be9ede"
     id="path19"
     style="fill:#be9ede;fill-opacity:1" />
  <g
     id="g696"
     transform="matrix(0.03264973,0,0,0.03264973,48.673503,59.673503)"
     style="fill:#7f3fbf;fill-opacity:1">
    <path
       d="M 377.5,561.3 H 71.2 C 37.4,561.3 10,588.7 10,622.6 v 306.3 c 0,33.8 27.4,61.3 61.2,61.3 h 306.3 c 33.8,0 61.2,-27.4 61.2,-61.3 V 622.5 c 0,-33.8 -27.4,-61.2 -61.2,-61.2 z M 316.3,867.5 H 132.5 V 683.8 H 316.3 Z M 377.5,10 H 71.2 C 37.4,10 10,37.4 10,71.3 v 306.3 c 0,33.8 27.4,61.2 61.2,61.2 h 306.3 c 33.8,0 61.2,-27.4 61.2,-61.2 V 71.3 C 438.7,37.4 411.3,10 377.5,10 Z M 316.3,316.3 H 132.5 V 132.5 h 183.8 z m 612.5,245 H 622.5 c -33.8,0 -61.2,27.4 -61.2,61.3 v 306.3 c 0,33.8 27.4,61.3 61.2,61.3 h 306.3 c 33.8,0 61.3,-27.4 61.3,-61.3 V 622.5 C 990,588.7 962.6,561.3 928.8,561.3 Z M 867.5,867.5 H 683.8 V 683.8 H 867.6 V 867.5 Z M 928.8,10 H 622.5 c -33.8,0 -61.2,27.4 -61.2,61.2 v 306.3 c 0,33.8 27.4,61.2 61.2,61.2 h 306.3 c 33.8,0 61.3,-27.4 61.3,-61.2 V 71.3 C 990,37.4 962.6,10 928.8,10 Z M 867.5,316.3 H 683.8 V 132.5 h 183.8 v 183.8 z"
       id="path694"
       style="fill:#7f3fbf;fill-opacity:1" />
  </g>
</svg>
