<?xml version="1.0" encoding="UTF-8" standalone="no"?>
<svg
   height="128px"
   viewBox="0 0 128 128"
   width="128px"
   version="1.1"
   id="svg21"
   sodipodi:docname="folder-linux.svg"
   inkscape:version="1.2.2 (b0a8486541, 2022-12-01)"
   xmlns:inkscape="http://www.inkscape.org/namespaces/inkscape"
   xmlns:sodipodi="http://sodipodi.sourceforge.net/DTD/sodipodi-0.dtd"
   xmlns="http://www.w3.org/2000/svg"
   xmlns:svg="http://www.w3.org/2000/svg">
  <defs
     id="defs25" />
  <sodipodi:namedview
     id="namedview23"
     pagecolor="#ffffff"
     bordercolor="#000000"
     borderopacity="0.25"
     inkscape:showpageshadow="2"
     inkscape:pageopacity="0.0"
     inkscape:pagecheckerboard="0"
     inkscape:deskcolor="#d1d1d1"
     showgrid="false"
     inkscape:zoom="5.6328125"
     inkscape:cx="64.266297"
     inkscape:cy="64.443828"
     inkscape:window-width="1920"
     inkscape:window-height="1019"
     inkscape:window-x="0"
     inkscape:window-y="0"
     inkscape:window-maximized="1"
     inkscape:current-layer="svg21"
     showguides="true">
    <sodipodi:guide
       position="63.733703,61.78086"
       orientation="1,0"
       id="guide1369"
       inkscape:locked="false" />
  </sodipodi:namedview>
  <linearGradient
     id="a"
     gradientTransform="matrix(0.45451 0 0 0.455522 -1210.292114 616.172607)"
     gradientUnits="userSpaceOnUse"
     x1="2689.251953"
     x2="2918.069824"
     y1="-1106.802979"
     y2="-1106.802979">
    <stop
       offset="0"
       stop-color="#7f3fbf"
       id="stop2"
       style="stop-color:#7f3fbf;stop-opacity:1;" />
    <stop
       offset="0.0576991"
       stop-color="#be9ede"
       id="stop4"
       style="stop-color:#be9ede;stop-opacity:1;" />
    <stop
       offset="0.122204"
       stop-color="#7f3fbf"
       id="stop6"
       style="stop-color:#7f3fbf;stop-opacity:1;" />
    <stop
       offset="0.87330598"
       stop-color="#7f3fbf"
       id="stop8"
       style="stop-color:#7f3fbf;stop-opacity:1;" />
    <stop
       offset="0.95599699"
       stop-color="#be9ede"
       id="stop10"
       style="stop-color:#be9ede;stop-opacity:1;" />
    <stop
       offset="1"
       stop-color="#7f3fbf"
       id="stop12"
       style="stop-color:#7f3fbf;stop-opacity:1;" />
  </linearGradient>
  <path
     d="m 21.976562 12 c -5.527343 0 -9.976562 4.460938 -9.976562 10 v 86.03125 c 0 5.542969 4.449219 10 9.976562 10 h 84.042969 c 5.53125 0 9.980469 -4.457031 9.980469 -10 v -72.085938 c 0 -6.628906 -5.359375 -12 -11.972656 -12 h -46.027344 c -2.453125 0 -4.695312 -1.386718 -5.796875 -3.582031 l -1.503906 -2.992187 c -1.65625 -3.292969 -5.019531 -5.371094 -8.699219 -5.371094 z m 0 0"
     fill="#7f3fbf"
     id="path15"
     style="fill:#7f3fbf;fill-opacity:1" />
  <path
     d="m 65.976562 36 c -2.746093 0 -5.226562 1.101562 -7.027343 2.890625 c -2.273438 2.253906 -5.382813 5.109375 -8.632813 5.109375 h -28.339844 c -5.527343 0 -9.976562 4.460938 -9.976562 10 v 54.03125 c 0 5.542969 4.449219 10 9.976562 10 h 84.042969 c 5.53125 0 9.980469 -4.457031 9.980469 -10 v -62.03125 c 0 -5.539062 -4.449219 -10 -9.980469 -10 z m 0 0"
     fill="url(#a)"
     id="path17" />
  <path
     d="m 65.976562 32 c -2.746093 0 -5.226562 1.101562 -7.027343 2.890625 c -2.273438 2.253906 -5.382813 5.109375 -8.632813 5.109375 h -28.339844 c -5.527343 0 -9.976562 4.460938 -9.976562 10 v 55.976562 c 0 5.539063 4.449219 10 9.976562 10 h 84.042969 c 5.53125 0 9.980469 -4.460937 9.980469 -10 v -63.976562 c 0 -5.539062 -4.449219 -10 -9.980469 -10 z m 0 0"
     fill="#be9ede"
     id="path19"
     style="fill:#be9ede;fill-opacity:1" />
  <path
     d="m 64.642945,52.470321 c -0.316037,0 -0.642268,0.01631 -0.978695,0.04282 -8.616581,0.678969 -6.330924,9.801208 -6.463455,12.841274 -0.154959,2.226529 -0.611683,3.98206 -2.140892,6.157615 -1.804466,2.14293 -4.336835,5.607097 -5.537773,9.218069 -0.566828,1.696402 -0.835967,3.433582 -0.585177,5.074933 a 0.86451259,0.86451259 0 0 0 -0.224285,0.275257 c -0.530125,0.546439 -0.917525,1.223367 -1.35182,1.710676 -0.40575,0.405749 -0.988888,0.544397 -1.625039,0.815578 -0.638189,0.277296 -1.341626,0.548475 -1.761647,1.386482 -0.183506,0.38536 -0.277298,0.803344 -0.269141,1.227443 0,0.405752 0.05505,0.81558 0.112141,1.092875 0.118253,0.81354 0.236516,1.484352 0.08156,1.977778 -0.507698,1.386483 -0.570904,2.33459 -0.216128,3.025796 0.354775,0.681 1.090834,0.958306 1.916608,1.225405 1.651544,0.407785 3.894385,0.275254 5.656032,1.223366 1.888063,0.950152 3.80467,1.366092 5.33388,0.958312 1.072484,-0.23652 1.977775,-0.946079 2.463044,-1.928852 1.196861,-0.0058 2.507903,-0.54847 4.608016,-0.681012 1.425223,-0.118246 3.2093,0.544404 5.25436,0.407797 0.05097,0.273215 0.128452,0.403706 0.232441,0.678961 l 0.0062,0.0058 c 0.797228,1.586306 2.269345,2.308096 3.841371,2.183716 1.572026,-0.12233 3.246001,-1.09287 4.601899,-2.662863 1.286575,-1.5598 3.431545,-2.210222 4.848611,-3.064539 0.709554,-0.40575 1.282497,-0.956266 1.323276,-1.739221 0.04689,-0.815578 -0.40779,-1.653584 -1.455806,-2.805588 v -0.197778 l -0.0062,-0.0062 c -0.34662,-0.407789 -0.509735,-1.090836 -0.689162,-1.888063 -0.173311,-0.817617 -0.371089,-1.60261 -1.003162,-2.132736 h -0.0062 c -0.120294,-0.109693 -0.250784,-0.136199 -0.383316,-0.274854 a 0.72790328,0.72790328 0 0 0 -0.3874,-0.130486 c 0.878785,-2.605771 0.538282,-5.19931 -0.352736,-7.531862 -1.086758,-2.874914 -2.987055,-5.378737 -4.434706,-7.101646 -1.623,-2.049138 -3.213376,-3.990213 -3.180753,-6.867165 0.05301,-4.387809 0.48119,-12.504847 -7.226021,-12.517081 z m 1.0786,6.942608 h 0.02651 c 0.434294,0 0.807422,0.126416 1.190742,0.403711 0.3874,0.275257 0.672852,0.67693 0.893058,1.086757 0.21409,0.528086 0.322153,0.935875 0.338465,1.476195 0,-0.04078 0.01223,-0.08156 0.01223,-0.122336 v 0.21409 a 0.17534925,0.17534925 0 0 1 -0.0082,-0.04282 l -0.0082,-0.04893 a 3.6843732,3.6843732 0 0 1 -0.305841,1.439498 1.9431144,1.9431144 0 0 1 -0.434294,0.683045 1.4476508,1.4476508 0 0 0 -0.179429,-0.08563 c -0.212049,-0.09175 -0.403709,-0.130501 -0.57906,-0.271181 a 2.6750956,2.6750956 0 0 0 -0.448479,-0.134575 c 0.101946,-0.122335 0.297685,-0.271179 0.373126,-0.403712 0.108063,-0.260984 0.167195,-0.53828 0.179428,-0.819655 v -0.04078 a 2.4671231,2.4671231 0 0 0 -0.12437,-0.815576 c -0.09175,-0.273221 -0.205932,-0.407791 -0.373125,-0.678971 -0.171273,-0.134569 -0.340505,-0.26914 -0.544398,-0.26914 h -0.03262 c -0.189621,0 -0.358854,0.06117 -0.534203,0.26914 a 1.6311558,1.6311558 0 0 0 -0.417985,0.681009 2.4059547,2.4059547 0 0 0 -0.183504,0.815577 v 0.03874 c 0.0041,0.181465 0.01631,0.364972 0.04078,0.544398 -0.393426,-0.136612 -0.892967,-0.275267 -1.237549,-0.411876 a 3.3336747,3.3336747 0 0 1 -0.0367,-0.407788 v -0.04078 a 3.6130102,3.6130102 0 0 1 0.305841,-1.56591 c 0.167195,-0.448569 0.473036,-0.827813 0.876747,-1.086758 a 2.0083606,2.0083606 0 0 1 1.211132,-0.407789 z m -6.039353,0.1203 h 0.0734 c 0.28953,0 0.550517,0.09787 0.81354,0.275257 0.297685,0.263023 0.538282,0.587217 0.701397,0.94811 0.183504,0.40575 0.285451,0.815579 0.311958,1.359975 v 0.0082 c 0.01421,0.273217 0.01223,0.407787 -0.0041,0.542359 v 0.163115 c -0.06117,0.01421 -0.11418,0.0367 -0.169232,0.04893 -0.309921,0.112141 -0.558671,0.275257 -0.801305,0.407789 0.02447,-0.183506 0.02651,-0.367011 0.0062,-0.544399 v -0.03058 c -0.02447,-0.271179 -0.08156,-0.40779 -0.167192,-0.678968 a 1.2498732,1.2498732 0 0 0 -0.33854,-0.54445 0.5056583,0.5056583 0 0 0 -0.373127,-0.130485 h -0.04282 c -0.144768,0.01223 -0.265065,0.08156 -0.379245,0.26914 a 1.1254975,1.1254975 0 0 0 -0.244673,0.550515 1.924764,1.924764 0 0 0 -0.04689,0.672852 v 0.03058 c 0.02447,0.275257 0.07544,0.407788 0.163115,0.681007 0.09379,0.273217 0.199816,0.407788 0.338466,0.546437 0.02039,0.01835 0.04078,0.0367 0.06932,0.04893 -0.142718,0.116218 -0.238556,0.14272 -0.358856,0.277297 a 0.61983922,0.61983922 0 0 1 -0.267101,0.138653 5.3420352,5.3420352 0 0 1 -0.560709,-0.819658 3.6130102,3.6130102 0 0 1 -0.316037,-1.359975 3.5865038,3.5865038 0 0 1 0.163115,-1.362015 2.915691,2.915691 0 0 1 0.577023,-1.090836 c 0.260984,-0.27118 0.530126,-0.40779 0.852278,-0.40779 z m 2.793355,3.47844 c 0.676929,0 1.494545,0.132534 2.479356,0.81354 0.59741,0.407787 1.066367,0.548475 2.144969,0.954225 h 0.0062 c 0.519931,0.277296 0.825772,0.54236 0.974617,0.813539 V 65.32587 a 1.1642375,1.1642375 0 0 1 0.03262,0.958304 c -0.250789,0.632073 -1.052095,1.311043 -2.167398,1.716794 v 0.0041 c -0.546437,0.275257 -1.02151,0.678969 -1.580182,0.948109 -0.562747,0.275258 -1.198899,0.595373 -2.063412,0.544399 a 2.322358,2.322358 0 0 1 -0.913444,-0.13656 7.270877,7.270877 0 0 1 -0.656541,-0.403712 c -0.397595,-0.275257 -0.740137,-0.67693 -1.247835,-0.94811 v -0.01025 h -0.01025 c -0.815578,-0.50158 -1.25599,-1.043939 -1.398716,-1.447651 -0.14272,-0.546436 -0.01025,-0.958303 0.393516,-1.223366 0.456724,-0.275258 0.774799,-0.552554 0.984812,-0.685087 0.212049,-0.150884 0.291568,-0.207972 0.358853,-0.267101 h 0.0041 v -0.0062 c 0.344581,-0.411867 0.88898,-0.958303 1.710675,-1.225407 0.283412,-0.0734 0.59945,-0.132533 0.950147,-0.132533 z m 5.709045,4.36742 c 0.729941,2.889184 2.438577,7.085333 3.537568,9.1202 0.583138,1.088795 1.743298,3.38261 2.246918,6.16577 0.318076,-0.01025 0.672852,0.0367 1.045979,0.130485 1.317157,-3.407078 -1.113264,-7.069021 -2.220412,-8.086454 -0.448568,-0.40779 -0.473035,-0.683047 -0.25079,-0.683047 1.202978,1.088796 2.783159,3.20522 3.356103,5.621371 0.265063,1.090834 0.32623,2.250995 0.04282,3.405038 0.136602,0.05709 0.275256,0.122335 0.417981,0.136602 2.104192,1.088798 2.88103,1.912531 2.507903,3.13386 v -0.08767 c -0.122335,-0.0062 -0.244672,0 -0.367009,0 h -0.03262 c 0.307882,-0.952187 -0.371087,-1.68213 -2.171476,-2.495669 -1.865635,-0.815578 -3.356104,-0.685087 -3.608931,0.948109 -0.01631,0.08767 -0.02651,0.134569 -0.0367,0.275257 -0.138653,0.0469 -0.283415,0.108063 -0.426141,0.130487 -0.876745,0.546438 -1.349781,1.364055 -1.616883,2.420227 -0.265063,1.086758 -0.34662,2.357021 -0.417984,3.810788 v 0.0062 c -0.04078,0.681008 -0.34662,1.708636 -0.650423,2.752575 -3.058417,2.185748 -7.299422,3.135892 -10.904276,0.681009 a 5.3930089,5.3930089 0 0 0 -0.819661,-1.086788 2.9564699,2.9564699 0 0 0 -0.560711,-0.678968 c 0.371087,0 0.689165,-0.06117 0.948109,-0.136618 a 1.253951,1.253951 0 0 0 0.640229,-0.681007 c 0.220205,-0.544398 0,-1.421145 -0.703437,-2.371292 -0.703434,-0.952188 -1.898258,-2.028751 -3.645633,-3.101237 -1.284534,-0.815577 -2.010398,-1.77388 -2.344786,-2.846366 -0.336425,-1.088798 -0.291569,-2.212255 -0.03058,-3.354064 0.499542,-2.181672 1.78,-4.302174 2.597616,-5.633605 0.218167,-0.132533 0.07544,0.275258 -0.83189,1.985933 -0.807422,1.531248 -2.324396,5.091245 -0.24875,7.858092 a 16.562349,16.562349 0 0 1 1.319196,-5.864004 c 1.149964,-2.605772 3.55388,-7.144462 3.743503,-10.741162 0.09787,0.0734 0.44245,0.275258 0.589256,0.411867 0.444489,0.271179 0.774798,0.678969 1.202976,0.948109 0.42818,0.409828 0.972578,0.683047 1.786116,0.683047 0.07952,0.0062 0.15292,0.01223 0.224284,0.01223 0.840044,0 1.488429,-0.273218 2.032828,-0.546436 0.591293,-0.273218 1.060253,-0.681008 1.508818,-0.815578 h 0.01025 c 0.952188,-0.275258 1.702519,-0.819656 2.128659,-1.42726 z m 4.455093,18.264866 c 0.07544,1.223369 0.699358,2.538488 1.79835,2.807629 1.198899,0.273217 2.923847,-0.678969 3.65175,-1.559793 l 0.430218,-0.02039 c 0.642268,-0.01422 1.17647,0.02039 1.726985,0.546437 l 0.0061,0.0062 c 0.424102,0.40575 0.621878,1.080642 0.797227,1.786117 0.17331,0.815578 0.313998,1.590377 0.833928,2.173514 0.990928,1.074523 1.31512,1.847284 1.296769,2.324397 l 0.0062,-0.01421 v 0.0367 l -0.0062,-0.02447 c -0.03058,0.534201 -0.377203,0.807421 -1.015394,1.21317 -1.284535,0.817616 -3.559997,1.45173 -5.009687,3.201146 -1.260068,1.502699 -2.793355,2.324398 -4.151292,2.428388 -1.353858,0.10812 -2.522174,-0.4078 -3.2093,-1.830983 l -0.01025,-0.0058 c -0.428127,-0.815639 -0.244622,-2.089983 0.114238,-3.44588 0.358854,-1.362016 0.872668,-2.740341 0.944031,-3.867878 0.07544,-1.455805 0.154961,-2.721991 0.397595,-3.698646 0.244672,-0.948109 0.627996,-1.625039 1.306964,-2.006321 l 0.09175,-0.04486 z m -22.049148,0.09991 h 0.02039 c 0.108063,0 0.214089,0.01025 0.320114,0.02854 0.766643,0.112152 1.439495,0.678969 2.08584,1.533287 l 1.855441,3.392804 0.0062,0.0062 c 0.495464,1.086758 1.537364,2.169437 2.424305,3.337753 0.884902,1.219289 1.569987,2.306046 1.486391,3.201132 v 0.01223 c -0.116218,1.516982 -0.978693,2.340708 -2.293813,2.638402 -1.315119,0.275267 -3.099196,0.0047 -4.883274,-0.946072 -1.973696,-1.092875 -4.318485,-0.956267 -5.825263,-1.227444 -0.752371,-0.134569 -1.243758,-0.407785 -1.474159,-0.815574 -0.224282,-0.407789 -0.230399,-1.227445 0.25079,-2.507902 v -0.0082 l 0.0041,-0.0062 c 0.238558,-0.681006 0.06117,-1.533287 -0.05505,-2.279541 -0.112152,-0.817615 -0.169232,-1.44765 0.08767,-1.916606 0.32623,-0.681008 0.807422,-0.815579 1.406871,-1.086758 0.599451,-0.275257 1.304926,-0.411867 1.865635,-0.958303 h 0.0041 v -0.0041 c 0.521969,-0.546437 0.907331,-1.225407 1.362015,-1.708637 0.387399,-0.409826 0.774801,-0.685086 1.351821,-0.685086 z M 65.187343,67.242474 c -0.886942,0.409827 -1.926804,1.090837 -3.033951,1.090837 -1.105107,0 -1.977777,-0.544399 -2.609849,-0.95015 -0.313998,-0.273217 -0.570903,-0.546436 -0.760527,-0.683047 -0.334386,-0.273217 -0.293607,-0.678968 -0.150884,-0.678968 0.222244,0.03262 0.263023,0.273219 0.40575,0.407789 0.195739,0.134569 0.438373,0.40779 0.734019,0.678969 0.595372,0.407788 1.386482,0.952187 2.37945,0.952187 0.988888,0 2.147009,-0.544399 2.850444,-0.950147 0.397594,-0.275259 0.90733,-0.681009 1.321237,-0.952188 0.318074,-0.277297 0.303802,-0.544397 0.568864,-0.544397 0.260986,0.03262 0.06932,0.273217 -0.299724,0.676928 A 16.509336,16.509336 0 0 1 65.1853,67.244514 Z m -2.20614,-3.22765 v -0.04486 c -0.01223,-0.04078 0.02651,-0.08563 0.05913,-0.101947 0.150885,-0.08767 0.367009,-0.05505 0.530126,0.0082 0.128452,0 0.32623,0.136617 0.305841,0.275257 -0.01223,0.09992 -0.17331,0.134568 -0.275257,0.134568 -0.112141,0 -0.187584,-0.08767 -0.287492,-0.13865 -0.106024,-0.0367 -0.297685,-0.01631 -0.332348,-0.132536 z m -1.123457,0 c -0.04078,0.118254 -0.230401,0.09991 -0.338466,0.134569 -0.09583,0.05097 -0.175349,0.138652 -0.285452,0.138652 -0.101946,0 -0.265063,-0.04078 -0.277297,-0.138652 -0.02039,-0.134569 0.179429,-0.271178 0.305842,-0.271178 0.163116,-0.06321 0.375166,-0.09583 0.528088,-0.01025 0.03874,0.01835 0.0734,0.06117 0.06117,0.101946 v 0.04078 h 0.0062 z"
     id="path694"
     style="stroke-width:2.03895;fill:#7f3fbf;fill-opacity:1" />
</svg>
