<?xml version="1.0" encoding="UTF-8" standalone="no"?>
<svg
   height="128px"
   viewBox="0 0 128 128"
   width="128px"
   version="1.1"
   id="svg21"
   sodipodi:docname="folder-gimp.svg"
   inkscape:version="1.2.2 (b0a8486541, 2022-12-01)"
   xmlns:inkscape="http://www.inkscape.org/namespaces/inkscape"
   xmlns:sodipodi="http://sodipodi.sourceforge.net/DTD/sodipodi-0.dtd"
   xmlns="http://www.w3.org/2000/svg"
   xmlns:svg="http://www.w3.org/2000/svg">
  <defs
     id="defs25" />
  <sodipodi:namedview
     id="namedview23"
     pagecolor="#ffffff"
     bordercolor="#000000"
     borderopacity="0.25"
     inkscape:showpageshadow="2"
     inkscape:pageopacity="0.0"
     inkscape:pagecheckerboard="0"
     inkscape:deskcolor="#d1d1d1"
     showgrid="false"
     inkscape:zoom="5.6328125"
     inkscape:cx="64.355062"
     inkscape:cy="64.443828"
     inkscape:window-width="1920"
     inkscape:window-height="1019"
     inkscape:window-x="0"
     inkscape:window-y="0"
     inkscape:window-maximized="1"
     inkscape:current-layer="svg21" />
  <linearGradient
     id="a"
     gradientTransform="matrix(0.45451 0 0 0.455522 -1210.292114 616.172607)"
     gradientUnits="userSpaceOnUse"
     x1="2689.251953"
     x2="2918.069824"
     y1="-1106.802979"
     y2="-1106.802979">
    <stop
       offset="0"
       stop-color="#7f3fbf"
       id="stop2"
       style="stop-color:#7f3fbf;stop-opacity:1;" />
    <stop
       offset="0.0576991"
       stop-color="#be9ede"
       id="stop4"
       style="stop-color:#be9ede;stop-opacity:1;" />
    <stop
       offset="0.122204"
       stop-color="#7f3fbf"
       id="stop6"
       style="stop-color:#7f3fbf;stop-opacity:1;" />
    <stop
       offset="0.87330598"
       stop-color="#7f3fbf"
       id="stop8"
       style="stop-color:#7f3fbf;stop-opacity:1;" />
    <stop
       offset="0.95599699"
       stop-color="#be9ede"
       id="stop10"
       style="stop-color:#be9ede;stop-opacity:1;" />
    <stop
       offset="1"
       stop-color="#7f3fbf"
       id="stop12"
       style="stop-color:#7f3fbf;stop-opacity:1;" />
  </linearGradient>
  <path
     d="m 21.976562 12 c -5.527343 0 -9.976562 4.460938 -9.976562 10 v 86.03125 c 0 5.542969 4.449219 10 9.976562 10 h 84.042969 c 5.53125 0 9.980469 -4.457031 9.980469 -10 v -72.085938 c 0 -6.628906 -5.359375 -12 -11.972656 -12 h -46.027344 c -2.453125 0 -4.695312 -1.386718 -5.796875 -3.582031 l -1.503906 -2.992187 c -1.65625 -3.292969 -5.019531 -5.371094 -8.699219 -5.371094 z m 0 0"
     fill="#7f3fbf"
     id="path15"
     style="fill:#7f3fbf;fill-opacity:1" />
  <path
     d="m 65.976562 36 c -2.746093 0 -5.226562 1.101562 -7.027343 2.890625 c -2.273438 2.253906 -5.382813 5.109375 -8.632813 5.109375 h -28.339844 c -5.527343 0 -9.976562 4.460938 -9.976562 10 v 54.03125 c 0 5.542969 4.449219 10 9.976562 10 h 84.042969 c 5.53125 0 9.980469 -4.457031 9.980469 -10 v -62.03125 c 0 -5.539062 -4.449219 -10 -9.980469 -10 z m 0 0"
     fill="url(#a)"
     id="path17" />
  <path
     d="m 65.976562 32 c -2.746093 0 -5.226562 1.101562 -7.027343 2.890625 c -2.273438 2.253906 -5.382813 5.109375 -8.632813 5.109375 h -28.339844 c -5.527343 0 -9.976562 4.460938 -9.976562 10 v 55.976562 c 0 5.539063 4.449219 10 9.976562 10 h 84.042969 c 5.53125 0 9.980469 -4.460937 9.980469 -10 v -63.976562 c 0 -5.539062 -4.449219 -10 -9.980469 -10 z m 0 0"
     fill="#be9ede"
     id="path19"
     style="fill:#be9ede;fill-opacity:1" />
  <path
     d="m 80.696059,55.002752 c -0.211999,-0.032 -0.455997,0.213998 -0.647995,0.793994 -0.313998,0.939994 -2.145985,6.405956 -11.007923,8.65194 1.191991,1.023993 1.951986,2.483982 1.951986,4.117971 0,3.093978 -2.687981,5.599961 -5.999958,5.599961 -3.309977,0 -5.993958,-2.507983 -5.995958,-5.599961 0,-1.205992 0.415997,-2.315984 1.109992,-3.231977 -6.269956,-0.643996 -8.979937,-6.245957 -8.979937,-6.245957 l -0.191998,8.325942 c -0.05,1.127992 -0.018,2.221984 -0.539997,3.271977 a 6.6699533,4.7299668 54.527 0 0 -0.1,-0.143999 6.6699533,4.7299668 54.527 0 0 -5.69796,-3.307977 6.6699533,4.7299668 54.527 0 0 -2.025986,0.667996 6.6699533,4.7299668 54.527 0 0 0.058,8.189942 6.6699533,4.7299668 54.527 0 0 6.581954,3.179978 c 5.993958,4.439969 16.963881,8.295939 24.461828,3.769973 l -4.049971,-3.257977 c -2.127985,0.689995 -5.207964,0.679996 -8.793939,-0.589996 5.79996,1.163992 8.939938,-0.105999 10.667925,-1.443989 -0.455996,-0.591996 -1.41999,-1.051993 -1.41999,-1.051993 0,0 1.125993,0.213998 1.859987,0.991993 0.293998,0.309998 0.395998,0.773995 0.435997,1.305991 1.105993,0.595996 2.365984,1.311991 3.749974,2.123985 4.119971,-4.119971 6.505954,-11.865917 5.039965,-25.233823 -0.07,-0.537996 -0.253998,-0.849994 -0.465997,-0.883994 z M 54.710241,65.922675 c 2.101985,-0.002 3.805973,1.589989 3.805973,3.553976 0,1.959986 -1.705988,3.551975 -3.805973,3.549975 -2.099985,0 -3.799973,-1.589989 -3.799973,-3.549975 0,-1.961987 1.699988,-3.553976 3.799973,-3.555976 z m 11.551919,0.963994 a 2.6499823,2.6499823 0 1 0 -0.004,5.299963 2.6499823,2.6499823 0 0 0 0.004,-5.299963 z M 44.378314,68.16466 a 1.9279865,1.8939867 0 0 1 0.004,0 1.9279865,1.8939867 0 0 1 0.042,0 1.9279865,1.8939867 0 0 1 1.929987,1.897986 1.9279865,1.8939867 0 0 1 -1.929987,1.893987 1.9279865,1.8939867 0 0 1 -1.923986,-1.893987 1.9279865,1.8939867 0 0 1 1.879987,-1.899986 z m 11.117922,0.245998 a 1.6801073,1.6801073 0 1 0 0.04,3.359976 1.6801073,1.6801073 0 0 0 -0.04,-3.359976 z m 16.519884,9.92793 c -0.086,0.106 -0.205999,0.197999 -0.311998,0.293998 l 0.419997,0.229999 c -0.034,-0.199999 -0.066,-0.419997 -0.107999,-0.523997 z m -1.099992,0.199999 -1.46599,0.721995 0.119999,0.1 0.395997,0.313998 3.987972,3.211978 0.03,0.024 a 163.51885,163.51885 0 0 0 3.903973,3.025973 1.0859924,1.0859924 0 0 0 -0.016,0.254 l 0.519996,-0.08 0.205999,0.304 4.633967,2.94398 c -0.239998,0.81999 -0.129999,1.90599 0.413997,2.91398 1.579989,2.92998 5.353963,4.18797 5.353963,4.18797 -1.541989,-3.93597 -0.417997,-7.13795 -3.459976,-8.26594 -0.483997,-0.18 -0.905994,-0.186 -1.257991,-0.066 l -4.093971,-3.78997 -0.347998,-0.104 -0.05,-0.524 a 1.6779882,1.6779882 0 0 0 -0.239998,0.118 c -0.611996,-0.519995 -1.37399,-1.073992 -2.179985,-1.629988 -2.727981,-1.669988 -4.513968,-2.599981 -6.455954,-3.659974 z"
     id="path694"
     style="stroke-width:1.99999;fill:#7f3fbf;fill-opacity:1" />
</svg>
