<?xml version="1.0" encoding="UTF-8" standalone="no"?>
<svg
   height="128px"
   viewBox="0 0 128 128"
   width="128px"
   version="1.1"
   id="svg21"
   sodipodi:docname="folder-system.svg"
   inkscape:version="1.2.2 (b0a8486541, 2022-12-01)"
   xmlns:inkscape="http://www.inkscape.org/namespaces/inkscape"
   xmlns:sodipodi="http://sodipodi.sourceforge.net/DTD/sodipodi-0.dtd"
   xmlns="http://www.w3.org/2000/svg"
   xmlns:svg="http://www.w3.org/2000/svg">
  <defs
     id="defs25" />
  <sodipodi:namedview
     id="namedview23"
     pagecolor="#ffffff"
     bordercolor="#000000"
     borderopacity="0.25"
     inkscape:showpageshadow="2"
     inkscape:pageopacity="0.0"
     inkscape:pagecheckerboard="0"
     inkscape:deskcolor="#d1d1d1"
     showgrid="false"
     inkscape:zoom="5.6328125"
     inkscape:cx="64.355062"
     inkscape:cy="64.177531"
     inkscape:window-width="1920"
     inkscape:window-height="1019"
     inkscape:window-x="0"
     inkscape:window-y="0"
     inkscape:window-maximized="1"
     inkscape:current-layer="svg21"
     showguides="true">
    <sodipodi:guide
       position="63.733703,71.012483"
       orientation="1,0"
       id="guide1393"
       inkscape:locked="false" />
  </sodipodi:namedview>
  <linearGradient
     id="a"
     gradientTransform="matrix(0.45451 0 0 0.455522 -1210.292114 616.172607)"
     gradientUnits="userSpaceOnUse"
     x1="2689.251953"
     x2="2918.069824"
     y1="-1106.802979"
     y2="-1106.802979">
    <stop
       offset="0"
       stop-color="#7f3fbf"
       id="stop2"
       style="stop-color:#7f3fbf;stop-opacity:1;" />
    <stop
       offset="0.0576991"
       stop-color="#be9ede"
       id="stop4"
       style="stop-color:#be9ede;stop-opacity:1;" />
    <stop
       offset="0.122204"
       stop-color="#7f3fbf"
       id="stop6"
       style="stop-color:#7f3fbf;stop-opacity:1;" />
    <stop
       offset="0.87330598"
       stop-color="#7f3fbf"
       id="stop8"
       style="stop-color:#7f3fbf;stop-opacity:1;" />
    <stop
       offset="0.95599699"
       stop-color="#be9ede"
       id="stop10"
       style="stop-color:#be9ede;stop-opacity:1;" />
    <stop
       offset="1"
       stop-color="#7f3fbf"
       id="stop12"
       style="stop-color:#7f3fbf;stop-opacity:1;" />
  </linearGradient>
  <path
     d="m 21.976562 12 c -5.527343 0 -9.976562 4.460938 -9.976562 10 v 86.03125 c 0 5.542969 4.449219 10 9.976562 10 h 84.042969 c 5.53125 0 9.980469 -4.457031 9.980469 -10 v -72.085938 c 0 -6.628906 -5.359375 -12 -11.972656 -12 h -46.027344 c -2.453125 0 -4.695312 -1.386718 -5.796875 -3.582031 l -1.503906 -2.992187 c -1.65625 -3.292969 -5.019531 -5.371094 -8.699219 -5.371094 z m 0 0"
     fill="#7f3fbf"
     id="path15"
     style="fill:#7f3fbf;fill-opacity:1" />
  <path
     d="m 65.976562 36 c -2.746093 0 -5.226562 1.101562 -7.027343 2.890625 c -2.273438 2.253906 -5.382813 5.109375 -8.632813 5.109375 h -28.339844 c -5.527343 0 -9.976562 4.460938 -9.976562 10 v 54.03125 c 0 5.542969 4.449219 10 9.976562 10 h 84.042969 c 5.53125 0 9.980469 -4.457031 9.980469 -10 v -62.03125 c 0 -5.539062 -4.449219 -10 -9.980469 -10 z m 0 0"
     fill="url(#a)"
     id="path17" />
  <path
     d="m 65.976562 32 c -2.746093 0 -5.226562 1.101562 -7.027343 2.890625 c -2.273438 2.253906 -5.382813 5.109375 -8.632813 5.109375 h -28.339844 c -5.527343 0 -9.976562 4.460938 -9.976562 10 v 55.976562 c 0 5.539063 4.449219 10 9.976562 10 h 84.042969 c 5.53125 0 9.980469 -4.460937 9.980469 -10 v -63.976562 c 0 -5.539062 -4.449219 -10 -9.980469 -10 z m 0 0"
     fill="#be9ede"
     id="path19"
     style="fill:#be9ede;fill-opacity:1" />
  <path
     d="m 84.883569,69.4997 c 0.278506,0.75719 0.04352,1.60141 -0.557011,2.14101 l -3.76853,3.4291 c 0.09574,0.72238 0.147956,1.46216 0.147956,2.21064 0,0.74848 -0.05222,1.48827 -0.147956,2.21064 l 3.76853,3.4291 c 0.600528,0.5396 0.835517,1.38382 0.557011,2.14101 -0.382945,1.03569 -0.84422,2.02787 -1.375122,2.98523 l -0.409055,0.70497 c -0.574418,0.95736 -1.218462,1.86251 -1.923429,2.71543 -0.513495,0.62664 -1.366419,0.83552 -2.132309,0.59183 l -4.847739,-1.54049 c -1.166242,0.89644 -2.454331,1.64493 -3.829452,2.21064 L 69.27855,97.6984 c -0.174066,0.792 -0.783297,1.41863 -1.584001,1.54918 -1.201055,0.20018 -2.436924,0.30462 -3.698903,0.30462 -1.261978,0 -2.497847,-0.10444 -3.698903,-0.30462 -0.800703,-0.13055 -1.409934,-0.75718 -1.584,-1.54918 L 57.62483,92.72881 c -1.375125,-0.56571 -2.663215,-1.3142 -3.829455,-2.21064 l -4.83903,1.54919 c -0.76589,0.24369 -1.61882,0.0261 -2.13231,-0.59183 -0.70497,-0.85292 -1.34901,-1.75806 -1.92343,-2.71543 l -0.40906,-0.70496 c -0.5309,-0.95737 -0.99217,-1.94954 -1.37512,-2.98523 -0.2785,-0.75719 -0.0435,-1.60141 0.55701,-2.14102 l 3.76853,-3.4291 c -0.0957,-0.73107 -0.14795,-1.47086 -0.14795,-2.21934 0,-0.74848 0.0522,-1.48826 0.14795,-2.21064 l -3.76853,-3.4291 c -0.60052,-0.5396 -0.83551,-1.38382 -0.55701,-2.14101 0.38295,-1.03569 0.84422,-2.02787 1.37512,-2.98523 l 0.40906,-0.70497 c 0.57442,-0.95736 1.21846,-1.86251 1.92343,-2.71543 0.51349,-0.62664 1.36642,-0.83552 2.13231,-0.59182 l 4.84774,1.54048 c 1.16624,-0.89644 2.45433,-1.64492 3.829448,-2.21064 l 1.087913,-4.96958 c 0.174066,-0.792 0.783297,-1.41864 1.584001,-1.54919 C 61.506502,55.10444 62.742371,55 64.00435,55 c 1.261978,0 2.497847,0.10444 3.698903,0.30462 0.800703,0.13055 1.409934,0.75718 1.584,1.54918 l 1.087913,4.96959 c 1.375122,0.56571 2.66321,1.3142 3.829453,2.21064 l 4.847738,-1.54049 c 0.765891,-0.24369 1.618814,-0.0261 2.132309,0.59183 0.704967,0.85292 1.349012,1.75806 1.92343,2.71543 l 0.409055,0.70496 c 0.530901,0.95737 0.992176,1.94954 1.375121,2.98524 z M 64.00435,84.24309 a 6.9626409,6.9626409 0 1 0 0,-13.92528 6.9626409,6.9626409 0 1 0 0,13.92528 z"
     id="path692"
     style="stroke-width:0.087033;fill:#7f3fbf;fill-opacity:1" />
</svg>
