<?xml version="1.0" encoding="UTF-8" standalone="no"?>
<svg
   height="128px"
   viewBox="0 0 128 128"
   width="128px"
   version="1.1"
   id="svg21"
   sodipodi:docname="folder-endeavouros.svg"
   inkscape:version="1.2.2 (b0a8486541, 2022-12-01)"
   xmlns:inkscape="http://www.inkscape.org/namespaces/inkscape"
   xmlns:sodipodi="http://sodipodi.sourceforge.net/DTD/sodipodi-0.dtd"
   xmlns="http://www.w3.org/2000/svg"
   xmlns:svg="http://www.w3.org/2000/svg">
  <defs
     id="defs25" />
  <sodipodi:namedview
     id="namedview23"
     pagecolor="#ffffff"
     bordercolor="#000000"
     borderopacity="0.25"
     inkscape:showpageshadow="2"
     inkscape:pageopacity="0.0"
     inkscape:pagecheckerboard="0"
     inkscape:deskcolor="#d1d1d1"
     showgrid="false"
     inkscape:zoom="5.6328125"
     inkscape:cx="64.355062"
     inkscape:cy="64.443828"
     inkscape:window-width="1920"
     inkscape:window-height="1019"
     inkscape:window-x="0"
     inkscape:window-y="0"
     inkscape:window-maximized="1"
     inkscape:current-layer="svg21" />
  <linearGradient
     id="a"
     gradientTransform="matrix(0.45451 0 0 0.455522 -1210.292114 616.172607)"
     gradientUnits="userSpaceOnUse"
     x1="2689.251953"
     x2="2918.069824"
     y1="-1106.802979"
     y2="-1106.802979">
    <stop
       offset="0"
       stop-color="#7f3fbf"
       id="stop2"
       style="stop-color:#7f3fbf;stop-opacity:1;" />
    <stop
       offset="0.0576991"
       stop-color="#be9ede"
       id="stop4"
       style="stop-color:#be9ede;stop-opacity:1;" />
    <stop
       offset="0.122204"
       stop-color="#7f3fbf"
       id="stop6"
       style="stop-color:#7f3fbf;stop-opacity:1;" />
    <stop
       offset="0.87330598"
       stop-color="#7f3fbf"
       id="stop8"
       style="stop-color:#7f3fbf;stop-opacity:1;" />
    <stop
       offset="0.95599699"
       stop-color="#be9ede"
       id="stop10"
       style="stop-color:#be9ede;stop-opacity:1;" />
    <stop
       offset="1"
       stop-color="#7f3fbf"
       id="stop12"
       style="stop-color:#7f3fbf;stop-opacity:1;" />
  </linearGradient>
  <path
     d="m 21.976562 12 c -5.527343 0 -9.976562 4.460938 -9.976562 10 v 86.03125 c 0 5.542969 4.449219 10 9.976562 10 h 84.042969 c 5.53125 0 9.980469 -4.457031 9.980469 -10 v -72.085938 c 0 -6.628906 -5.359375 -12 -11.972656 -12 h -46.027344 c -2.453125 0 -4.695312 -1.386718 -5.796875 -3.582031 l -1.503906 -2.992187 c -1.65625 -3.292969 -5.019531 -5.371094 -8.699219 -5.371094 z m 0 0"
     fill="#7f3fbf"
     id="path15"
     style="fill:#7f3fbf;fill-opacity:1" />
  <path
     d="m 65.976562 36 c -2.746093 0 -5.226562 1.101562 -7.027343 2.890625 c -2.273438 2.253906 -5.382813 5.109375 -8.632813 5.109375 h -28.339844 c -5.527343 0 -9.976562 4.460938 -9.976562 10 v 54.03125 c 0 5.542969 4.449219 10 9.976562 10 h 84.042969 c 5.53125 0 9.980469 -4.457031 9.980469 -10 v -62.03125 c 0 -5.539062 -4.449219 -10 -9.980469 -10 z m 0 0"
     fill="url(#a)"
     id="path17" />
  <path
     d="m 65.976562 32 c -2.746093 0 -5.226562 1.101562 -7.027343 2.890625 c -2.273438 2.253906 -5.382813 5.109375 -8.632813 5.109375 h -28.339844 c -5.527343 0 -9.976562 4.460938 -9.976562 10 v 55.976562 c 0 5.539063 4.449219 10 9.976562 10 h 84.042969 c 5.53125 0 9.980469 -4.460937 9.980469 -10 v -63.976562 c 0 -5.539062 -4.449219 -10 -9.980469 -10 z m 0 0"
     fill="#be9ede"
     id="path19"
     style="fill:#be9ede;fill-opacity:1" />
  <g
     transform="matrix(1.2801243,0,0,1.2639578,-400.76821,32.587293)"
     id="g711">
    <g
       transform="matrix(0.963,0,0,0.983,13.5,0.76)"
       id="g709">
      <g
         transform="matrix(0.678,0,0,0.678,452,49.2)"
         id="g703">
        <path
           d="m -127,-42.3 c 4.57,6.45 23.8,31.4 10.7,36.6 -6.12,2.81 -34,-1.65 -33.6,-0.921 -2,3.28 -3.59,5.92 -3.59,5.92 0,0 21.5,0.967 38.1,-1.27 23.7,-3.18 -4.88,-33.5 -11.6,-40.3 z"
           style="fill:#7f7fff;stroke-width:0.585"
           inkscape:connector-curvature="0"
           id="path697" />
        <path
           d="m -127,-42.3 c -1.52,0.209 -29.4,34.5 -29.4,34.5 0,0 2.01,0.57 6.58,1.23 1.48,-1.15 22.3,-36.2 22.9,-35.7 -0.0107,-0.0141 -0.028,-0.0193 -0.0522,-0.016 z"
           style="fill:#ff7f7f;stroke-width:0.585"
           inkscape:connector-curvature="0"
           id="path699" />
        <path
           d="m -127,-42.3 c -0.96,-0.156 -22.9,35.7 -22.9,35.7 0,0 19.9,2.1 28.1,1.96 23.1,-0.39 0.176,-30.6 -5.16,-37.7 -0.007,-0.007 -0.0151,-0.0108 -0.0248,-0.0124 z"
           style="fill:#7f3fbf;stroke-width:0.585"
           inkscape:connector-curvature="0"
           id="path701" />
      </g>
    </g>
  </g>
</svg>
