<?xml version="1.0" encoding="UTF-8" standalone="no"?>
<svg
   height="128px"
   viewBox="0 0 128 128"
   width="128px"
   version="1.1"
   id="svg21"
   sodipodi:docname="folder.svg"
   inkscape:version="1.2.2 (b0a8486541, 2022-12-01)"
   xmlns:inkscape="http://www.inkscape.org/namespaces/inkscape"
   xmlns:sodipodi="http://sodipodi.sourceforge.net/DTD/sodipodi-0.dtd"
   xmlns="http://www.w3.org/2000/svg"
   xmlns:svg="http://www.w3.org/2000/svg">
  <defs
     id="defs25" />
  <sodipodi:namedview
     id="namedview23"
     pagecolor="#ffffff"
     bordercolor="#000000"
     borderopacity="0.25"
     inkscape:showpageshadow="2"
     inkscape:pageopacity="0.0"
     inkscape:pagecheckerboard="0"
     inkscape:deskcolor="#d1d1d1"
     showgrid="false"
     inkscape:zoom="4.3749787"
     inkscape:cx="72.571782"
     inkscape:cy="47.657375"
     inkscape:window-width="1920"
     inkscape:window-height="1019"
     inkscape:window-x="0"
     inkscape:window-y="0"
     inkscape:window-maximized="1"
     inkscape:current-layer="svg21" />
  <linearGradient
     id="a"
     gradientTransform="matrix(0.45451 0 0 0.455522 -1210.292114 616.172607)"
     gradientUnits="userSpaceOnUse"
     x1="2689.251953"
     x2="2918.069824"
     y1="-1106.802979"
     y2="-1106.802979">
    <stop
       offset="0"
       stop-color="#7f3fbf"
       id="stop2"
       style="stop-color:#7f3fbf;stop-opacity:1;" />
    <stop
       offset="0.0576991"
       stop-color="#be9ede"
       id="stop4"
       style="stop-color:#be9ede;stop-opacity:1;" />
    <stop
       offset="0.122204"
       stop-color="#7f3fbf"
       id="stop6"
       style="stop-color:#7f3fbf;stop-opacity:1;" />
    <stop
       offset="0.87330598"
       stop-color="#7f3fbf"
       id="stop8"
       style="stop-color:#7f3fbf;stop-opacity:1;" />
    <stop
       offset="0.95599699"
       stop-color="#be9ede"
       id="stop10"
       style="stop-color:#be9ede;stop-opacity:1;" />
    <stop
       offset="1"
       stop-color="#7f3fbf"
       id="stop12"
       style="stop-color:#7f3fbf;stop-opacity:1;" />
  </linearGradient>
  <path
     d="m 21.976562 12 c -5.527343 0 -9.976562 4.460938 -9.976562 10 v 86.03125 c 0 5.542969 4.449219 10 9.976562 10 h 84.042969 c 5.53125 0 9.980469 -4.457031 9.980469 -10 v -72.085938 c 0 -6.628906 -5.359375 -12 -11.972656 -12 h -46.027344 c -2.453125 0 -4.695312 -1.386718 -5.796875 -3.582031 l -1.503906 -2.992187 c -1.65625 -3.292969 -5.019531 -5.371094 -8.699219 -5.371094 z m 0 0"
     fill="#7f3fbf"
     id="path15"
     style="fill:#7f3fbf;fill-opacity:1" />
  <path
     d="m 65.976562 36 c -2.746093 0 -5.226562 1.101562 -7.027343 2.890625 c -2.273438 2.253906 -5.382813 5.109375 -8.632813 5.109375 h -28.339844 c -5.527343 0 -9.976562 4.460938 -9.976562 10 v 54.03125 c 0 5.542969 4.449219 10 9.976562 10 h 84.042969 c 5.53125 0 9.980469 -4.457031 9.980469 -10 v -62.03125 c 0 -5.539062 -4.449219 -10 -9.980469 -10 z m 0 0"
     fill="url(#a)"
     id="path17" />
  <path
     d="m 65.976562 32 c -2.746093 0 -5.226562 1.101562 -7.027343 2.890625 c -2.273438 2.253906 -5.382813 5.109375 -8.632813 5.109375 h -28.339844 c -5.527343 0 -9.976562 4.460938 -9.976562 10 v 55.976562 c 0 5.539063 4.449219 10 9.976562 10 h 84.042969 c 5.53125 0 9.980469 -4.460937 9.980469 -10 v -63.976562 c 0 -5.539062 -4.449219 -10 -9.980469 -10 z m 0 0"
     fill="#be9ede"
     id="path19"
     style="fill:#be9ede;fill-opacity:1" />
  <path
     style="fill:#7f3fbf;fill-opacity:1;stroke-width:0.177531"
     d="M 45.912181,92.945119 C 40.622895,91.90711 36.513537,88.348238 34.769335,83.29496 c -0.639263,-1.852062 -0.857213,-4.787282 -0.49355,-6.646832 1.133061,-5.793791 5.870835,-10.403281 11.74852,-11.430409 3.911545,-0.683544 8.080135,0.257952 11.537491,2.605798 1.47579,1.00219 4.045666,3.487009 5.17196,5.000778 0.49038,0.659085 0.940532,1.196276 1.000339,1.193758 0.0598,-0.0025 0.388349,-0.416555 0.730097,-0.920082 1.668125,-2.4578 4.894207,-5.258689 7.522,-6.530615 2.353141,-1.138985 3.869669,-1.472527 6.769262,-1.488816 2.667443,-0.01498 4.035357,0.250634 6.183703,1.200735 5.466603,2.41759 9.100514,8.716523 8.305836,14.397131 -1.060195,7.57861 -7.73496,12.969516 -15.411682,12.44732 -4.914082,-0.334271 -9.721057,-3.194784 -13.098454,-7.794566 -0.479456,-0.652988 -0.925605,-1.18725 -0.991439,-1.18725 -0.06583,0 -0.327735,0.314363 -0.582,0.698583 -2.380816,3.597656 -6.825001,6.856472 -10.680583,7.831818 -1.849541,0.46788 -4.924005,0.595567 -6.568654,0.272808 z M 51.2452,87.956162 c 3.352732,-0.852251 6.631796,-3.61914 9.07337,-7.656152 l 0.736485,-1.21774 -0.536326,-0.976421 c -0.887711,-1.616149 -2.20116,-3.271511 -3.758969,-4.737498 -1.701026,-1.600762 -2.919931,-2.377852 -4.752117,-3.029628 -1.107001,-0.393801 -1.608049,-0.46449 -3.343729,-0.471741 -3.104968,-0.01297 -4.953658,0.724736 -7.028863,2.804822 -1.85039,1.854743 -2.735353,3.948185 -2.735353,6.470671 0,3.902499 2.90502,7.622002 6.834951,8.751274 1.363628,0.39184 4.092982,0.422754 5.510551,0.06241 z m 30.084456,0.07629 c 3.119538,-0.718463 5.991228,-3.552784 6.843338,-6.754294 0.332058,-1.247586 0.325907,-3.191721 -0.01424,-4.497589 -0.763792,-2.932401 -3.323863,-5.579899 -6.28371,-6.498304 -1.362298,-0.422705 -4.183313,-0.50386 -5.605038,-0.161245 -2.377786,0.573012 -5.175136,2.423078 -7.033257,4.651543 -1.027718,1.232553 -2.561034,3.508022 -2.736589,4.061145 -0.07647,0.240927 0.118784,0.74532 0.605935,1.565318 2.133808,3.59173 5.090381,6.218039 8.2304,7.311024 1.256749,0.437453 1.73229,0.510044 3.330182,0.508361 1.025243,-0.0011 2.223579,-0.08476 2.662968,-0.185959 z"
     id="path1643" />
  <path
     style="fill:#7f3fbf;fill-opacity:1;stroke-width:0.177531"
     d="m 77.137309,82.019417 v -1.509015 h -1.509015 -1.509015 v -1.331484 -1.331484 h 1.509015 1.509015 v -1.509015 -1.509015 h 1.331484 1.331484 v 1.509015 1.509015 h 1.509016 1.509015 v 1.331484 1.331484 h -1.509015 -1.509016 v 1.509015 1.509016 h -1.331484 -1.331484 z"
     id="path1645" />
  <path
     style="fill:#7f3fbf;fill-opacity:1;stroke-width:0.177531"
     d="m 44.649098,79.178918 v -1.331484 h 4.349515 4.349515 v 1.331484 1.331484 h -4.349515 -4.349515 z"
     id="path1647" />
  <path
     style="fill:#7f3fbf;fill-opacity:1;stroke-width:0.0176863"
     d="m 92.463573,68.083633 c -0.783965,-0.115239 -1.28534,-0.898626 -1.036736,-1.619875 0.06405,-0.185826 0.140603,-0.314436 0.274379,-0.460973 0.261917,-0.286899 0.593112,-0.435216 0.975007,-0.436631 0.231047,-8.56e-4 0.417628,0.04131 0.626067,0.141497 0.139089,0.06685 0.191375,0.104882 0.320294,0.232976 0.12497,0.12417 0.167867,0.181479 0.227121,0.303418 0.163432,0.33633 0.185424,0.685113 0.06503,1.031308 -0.05978,0.171892 -0.141848,0.302179 -0.275581,0.437484 -0.208538,0.210992 -0.472917,0.332799 -0.801966,0.36949 -0.184874,0.02061 -0.240927,0.02081 -0.373614,0.0013 z m 0.473874,-0.273807 c 0.336891,-0.07139 0.617852,-0.351221 0.710755,-0.707901 0.03528,-0.135461 0.03528,-0.413003 0,-0.548465 -0.09159,-0.351646 -0.364941,-0.627795 -0.699487,-0.706653 -0.145551,-0.03431 -0.421965,-0.03473 -0.552054,-8.51e-4 -0.303021,0.07893 -0.518872,0.29218 -0.625306,0.617781 -0.06407,0.196003 -0.0687,0.488776 -0.01065,0.673466 0.0866,0.275516 0.259101,0.476976 0.508968,0.594406 0.220394,0.103579 0.431436,0.128298 0.667776,0.07822 z"
     id="path1649" />
  <path
     style="fill:#7f3fbf;fill-opacity:1;stroke-width:0.0176863"
     d="m 92.225223,66.829247 v -0.635152 l 0.06632,-0.01114 c 0.03648,-0.0061 0.201624,-0.0125 0.366991,-0.01415 0.241306,-0.0024 0.32073,0.0031 0.402285,0.02774 0.143203,0.04334 0.218195,0.114274 0.244344,0.231117 0.01866,0.0834 0.01701,0.102203 -0.01548,0.175646 -0.03539,0.08001 -0.09159,0.120889 -0.222133,0.161569 -0.02874,0.009 -0.02521,0.01567 0.02653,0.05052 0.08448,0.0569 0.138963,0.167209 0.193625,0.392003 l 0.04744,0.195097 -0.141532,0.0052 c -0.07784,0.0028 -0.14519,0.0015 -0.149662,-0.003 -0.0045,-0.0045 -0.0269,-0.08188 -0.04983,-0.172014 -0.02294,-0.09014 -0.05666,-0.18431 -0.07494,-0.209277 -0.05207,-0.07111 -0.140777,-0.107237 -0.263409,-0.107268 l -0.10888,-2.8e-5 -0.01008,0.08401 c -0.0055,0.04621 -0.01465,0.139722 -0.02022,0.207814 -0.0056,0.06809 -0.01442,0.15365 -0.01966,0.190128 l -0.0095,0.06632 h -0.131093 -0.131092 z m 0.587548,-0.108458 c 0.08247,-0.0229 0.119904,-0.07511 0.119904,-0.167234 0,-0.139015 -0.0785,-0.185426 -0.313932,-0.185608 l -0.128226,-9.8e-5 v 0.185706 0.185706 l 0.128226,-9.9e-5 c 0.07052,-5.5e-5 0.157836,-0.0083 0.194028,-0.01837 z"
     id="path1651" />
</svg>
