<?xml version="1.0" encoding="UTF-8" standalone="no"?>
<svg
   height="128px"
   viewBox="0 0 128 128"
   width="128px"
   version="1.1"
   id="svg21"
   sodipodi:docname="folder-gnome.svg"
   inkscape:version="1.2.2 (b0a8486541, 2022-12-01)"
   xmlns:inkscape="http://www.inkscape.org/namespaces/inkscape"
   xmlns:sodipodi="http://sodipodi.sourceforge.net/DTD/sodipodi-0.dtd"
   xmlns="http://www.w3.org/2000/svg"
   xmlns:svg="http://www.w3.org/2000/svg">
  <defs
     id="defs25" />
  <sodipodi:namedview
     id="namedview23"
     pagecolor="#ffffff"
     bordercolor="#000000"
     borderopacity="0.25"
     inkscape:showpageshadow="2"
     inkscape:pageopacity="0.0"
     inkscape:pagecheckerboard="0"
     inkscape:deskcolor="#d1d1d1"
     showgrid="false"
     inkscape:zoom="5.6328125"
     inkscape:cx="64.355062"
     inkscape:cy="64.443828"
     inkscape:window-width="1920"
     inkscape:window-height="1019"
     inkscape:window-x="0"
     inkscape:window-y="0"
     inkscape:window-maximized="1"
     inkscape:current-layer="svg21" />
  <linearGradient
     id="a"
     gradientTransform="matrix(0.45451 0 0 0.455522 -1210.292114 616.172607)"
     gradientUnits="userSpaceOnUse"
     x1="2689.251953"
     x2="2918.069824"
     y1="-1106.802979"
     y2="-1106.802979">
    <stop
       offset="0"
       stop-color="#7f3fbf"
       id="stop2"
       style="stop-color:#7f3fbf;stop-opacity:1;" />
    <stop
       offset="0.0576991"
       stop-color="#be9ede"
       id="stop4"
       style="stop-color:#be9ede;stop-opacity:1;" />
    <stop
       offset="0.122204"
       stop-color="#7f3fbf"
       id="stop6"
       style="stop-color:#7f3fbf;stop-opacity:1;" />
    <stop
       offset="0.87330598"
       stop-color="#7f3fbf"
       id="stop8"
       style="stop-color:#7f3fbf;stop-opacity:1;" />
    <stop
       offset="0.95599699"
       stop-color="#be9ede"
       id="stop10"
       style="stop-color:#be9ede;stop-opacity:1;" />
    <stop
       offset="1"
       stop-color="#7f3fbf"
       id="stop12"
       style="stop-color:#7f3fbf;stop-opacity:1;" />
  </linearGradient>
  <path
     d="m 21.976562 12 c -5.527343 0 -9.976562 4.460938 -9.976562 10 v 86.03125 c 0 5.542969 4.449219 10 9.976562 10 h 84.042969 c 5.53125 0 9.980469 -4.457031 9.980469 -10 v -72.085938 c 0 -6.628906 -5.359375 -12 -11.972656 -12 h -46.027344 c -2.453125 0 -4.695312 -1.386718 -5.796875 -3.582031 l -1.503906 -2.992187 c -1.65625 -3.292969 -5.019531 -5.371094 -8.699219 -5.371094 z m 0 0"
     fill="#7f3fbf"
     id="path15"
     style="fill:#7f3fbf;fill-opacity:1" />
  <path
     d="m 65.976562 36 c -2.746093 0 -5.226562 1.101562 -7.027343 2.890625 c -2.273438 2.253906 -5.382813 5.109375 -8.632813 5.109375 h -28.339844 c -5.527343 0 -9.976562 4.460938 -9.976562 10 v 54.03125 c 0 5.542969 4.449219 10 9.976562 10 h 84.042969 c 5.53125 0 9.980469 -4.457031 9.980469 -10 v -62.03125 c 0 -5.539062 -4.449219 -10 -9.980469 -10 z m 0 0"
     fill="url(#a)"
     id="path17" />
  <path
     d="m 65.976562 32 c -2.746093 0 -5.226562 1.101562 -7.027343 2.890625 c -2.273438 2.253906 -5.382813 5.109375 -8.632813 5.109375 h -28.339844 c -5.527343 0 -9.976562 4.460938 -9.976562 10 v 55.976562 c 0 5.539063 4.449219 10 9.976562 10 h 84.042969 c 5.53125 0 9.980469 -4.460937 9.980469 -10 v -63.976562 c 0 -5.539062 -4.449219 -10 -9.980469 -10 z m 0 0"
     fill="#be9ede"
     id="path19"
     style="fill:#be9ede;fill-opacity:1" />
  <path
     d="m 76.651998,52 c -7.6,0 -9.026,10.827999 -4.75,10.827999 4.276,0 12.351999,-10.827999 4.75,-10.827999 z m -11.745999,1.328 c -0.12,0 -0.248,0.006 -0.382,0.024 -4.28,0.554 -2.77,7.993999 -0.492,8.131999 2.205999,0.136 4.615999,-8.141999 0.874,-8.155999 z m -7.41,2.94 a 2.0779998,2.0779998 0 0 0 -0.742,0.174 c -3.439999,1.42 -0.524,7.271999 1.402,6.879999 1.778,-0.364 2.008,-7.111999 -0.66,-7.051999 z M 52.016,60.859999 a 1.6019999,1.6019999 0 0 0 -0.966,0.328 c -2.752,1.9 0.924,6.5 2.544,5.784 1.415999,-0.624 0.513999,-6.04 -1.58,-6.112 z m 15.273998,3.516 c -5.839999,0.05 -13.271999,3.012 -14.567998,8.807999 -1.436,6.436 5.919999,15.359994 13.593998,15.359994 3.776,0 8.132,-3.409995 8.946,-7.729994 0.622,-3.294 -7.324,-1.972 -7.04,0.208 0.342,2.611999 -1.916,3.899999 -4.127999,2.213999 -7.04,-5.359999 11.659999,-8.033999 10.425999,-15.357998 -0.4,-2.374 -3.488,-3.536 -7.23,-3.504 z M 51.458,92.381992 c -1.072,0 -1.916,0.34 -2.532,1.02 -0.616,0.68 -0.926,1.61 -0.926,2.794 0,1.17 0.306,2.095998 0.91,2.779998 0.606,0.682 1.426,1.024 2.46,1.024 0.516,0 1.746,0.008 2.575999,-0.688 V 95.781992 H 51.45 v 1.268 h 1.288 v 1.269998 c -0.196,0.16 -0.564,0.308 -1.16,0.308 -0.586,0 -1.088,-0.212 -1.42,-0.636 -0.334,-0.421998 -0.5,-1.019998 -0.5,-1.795998 0,-0.784 0.174,-1.386 0.518,-1.806 0.346,-0.422 0.838,-0.636 1.476,-0.636 a 3.2039997,3.2039997 0 0 1 1.634,0.45 l 0.432,-1.274 a 4.4899996,4.4899996 0 0 0 -1.074,-0.41 5.0139996,5.0139996 0 0 0 -1.186,-0.14 z m 13.123999,0 c -0.94,0.026 -1.684,0.364 -2.23,1.012 -0.566,0.676 -0.852,1.612 -0.852,2.8 0,1.188 0.286,2.119998 0.852,2.793998 0.568,0.676 1.35,1.012 2.348,1.012 1,0 1.779999,-0.336 2.347999,-1.012 0.566,-0.676 0.846,-1.605998 0.846,-2.791998 0,-1.19 -0.28,-2.126 -0.848,-2.8 -0.566,-0.676 -1.347999,-1.014 -2.345999,-1.014 z m -9.54,0.134 v 7.339998 h 1.364 v -4.409998 l 3.196,4.409998 h 1.012 v -7.339998 h -1.364 v 4.414 l -3.196,-4.414 h -1.01 z m 14.215999,0 -0.778,7.339998 h 1.52 l 0.468,-4.745998 1.43,4.767998 h 1.016 l 1.434,-4.611998 0.468,4.589998 h 1.516 l -0.78,-7.339998 h -1.724 l -1.426,4.58 -1.414,-4.58 z m 8.168,0 v 7.339998 h 4.417999 v -1.43 h -2.816 v -1.679998 h 2.094 v -1.28 h -2.094 v -1.52 h 2.722 v -1.43 z m -12.773999,1.238 h 0.048 a 1.2799999,1.2799999 0 0 1 1.139999,0.64 c 0.27,0.426 0.402,1.028 0.402,1.8 0,0.772 -0.132,1.368 -0.402,1.793998 a 1.2779999,1.2779999 0 0 1 -1.139999,0.64 1.2739999,1.2739999 0 0 1 -1.138,-0.64 c -0.268,-0.425998 -0.406,-1.021998 -0.406,-1.791998 0,-0.774 0.138,-1.376 0.406,-1.8 a 1.2699999,1.2699999 0 0 1 1.09,-0.642 z"
     id="path694"
     style="stroke-width:2;fill:#7f3fbf;fill-opacity:1" />
</svg>
