<?xml version="1.0" encoding="UTF-8" standalone="no"?>
<svg
   height="128px"
   viewBox="0 0 128 128"
   width="128px"
   version="1.1"
   id="svg21"
   sodipodi:docname="folder (copy).svg"
   inkscape:version="1.2.2 (b0a8486541, 2022-12-01)"
   xmlns:inkscape="http://www.inkscape.org/namespaces/inkscape"
   xmlns:sodipodi="http://sodipodi.sourceforge.net/DTD/sodipodi-0.dtd"
   xmlns="http://www.w3.org/2000/svg"
   xmlns:svg="http://www.w3.org/2000/svg">
  <defs
     id="defs25" />
  <sodipodi:namedview
     id="namedview23"
     pagecolor="#ffffff"
     bordercolor="#000000"
     borderopacity="0.25"
     inkscape:showpageshadow="2"
     inkscape:pageopacity="0.0"
     inkscape:pagecheckerboard="0"
     inkscape:deskcolor="#d1d1d1"
     showgrid="false"
     inkscape:zoom="5.6328125"
     inkscape:cx="64.266297"
     inkscape:cy="64.177531"
     inkscape:window-width="1920"
     inkscape:window-height="1019"
     inkscape:window-x="0"
     inkscape:window-y="0"
     inkscape:window-maximized="1"
     inkscape:current-layer="svg21" />
  <linearGradient
     id="a"
     gradientTransform="matrix(0.45451 0 0 0.455522 -1210.292114 616.172607)"
     gradientUnits="userSpaceOnUse"
     x1="2689.251953"
     x2="2918.069824"
     y1="-1106.802979"
     y2="-1106.802979">
    <stop
       offset="0"
       stop-color="#7f3fbf"
       id="stop2"
       style="stop-color:#7f3fbf;stop-opacity:1;" />
    <stop
       offset="0.0576991"
       stop-color="#be9ede"
       id="stop4"
       style="stop-color:#be9ede;stop-opacity:1;" />
    <stop
       offset="0.122204"
       stop-color="#7f3fbf"
       id="stop6"
       style="stop-color:#7f3fbf;stop-opacity:1;" />
    <stop
       offset="0.87330598"
       stop-color="#7f3fbf"
       id="stop8"
       style="stop-color:#7f3fbf;stop-opacity:1;" />
    <stop
       offset="0.95599699"
       stop-color="#be9ede"
       id="stop10"
       style="stop-color:#be9ede;stop-opacity:1;" />
    <stop
       offset="1"
       stop-color="#7f3fbf"
       id="stop12"
       style="stop-color:#7f3fbf;stop-opacity:1;" />
  </linearGradient>
  <path
     d="m 21.976562 12 c -5.527343 0 -9.976562 4.460938 -9.976562 10 v 86.03125 c 0 5.542969 4.449219 10 9.976562 10 h 84.042969 c 5.53125 0 9.980469 -4.457031 9.980469 -10 v -72.085938 c 0 -6.628906 -5.359375 -12 -11.972656 -12 h -46.027344 c -2.453125 0 -4.695312 -1.386718 -5.796875 -3.582031 l -1.503906 -2.992187 c -1.65625 -3.292969 -5.019531 -5.371094 -8.699219 -5.371094 z m 0 0"
     fill="#7f3fbf"
     id="path15"
     style="fill:#7f3fbf;fill-opacity:1" />
  <path
     d="m 65.976562 36 c -2.746093 0 -5.226562 1.101562 -7.027343 2.890625 c -2.273438 2.253906 -5.382813 5.109375 -8.632813 5.109375 h -28.339844 c -5.527343 0 -9.976562 4.460938 -9.976562 10 v 54.03125 c 0 5.542969 4.449219 10 9.976562 10 h 84.042969 c 5.53125 0 9.980469 -4.457031 9.980469 -10 v -62.03125 c 0 -5.539062 -4.449219 -10 -9.980469 -10 z m 0 0"
     fill="url(#a)"
     id="path17" />
  <path
     d="m 65.976562 32 c -2.746093 0 -5.226562 1.101562 -7.027343 2.890625 c -2.273438 2.253906 -5.382813 5.109375 -8.632813 5.109375 h -28.339844 c -5.527343 0 -9.976562 4.460938 -9.976562 10 v 55.976562 c 0 5.539063 4.449219 10 9.976562 10 h 84.042969 c 5.53125 0 9.980469 -4.460937 9.980469 -10 v -63.976562 c 0 -5.539062 -4.449219 -10 -9.980469 -10 z m 0 0"
     fill="#be9ede"
     id="path19"
     style="fill:#be9ede;fill-opacity:1" />
  <path
     d="M 63.466694,57.845 C 53.471783,57.845 45.275673,65.540002 44.5,75.320254 l 10.202709,4.208502 c 0.864501,-0.587416 1.908248,-0.934167 3.032893,-0.934167 0.09994,0 0.19828,0.0063 0.298214,0.0095 l 4.538239,-6.558168 v -0.09342 c 0,-3.950416 3.216897,-7.163001 7.176158,-7.163001 3.956086,0 7.176158,3.21575 7.176158,7.167751 0,3.952001 -3.220072,7.164587 -7.176158,7.164587 h -0.166557 l -6.46552,4.609084 c 0,0.08233 0.0063,0.16625 0.0063,0.25175 0,2.968751 -2.403157,5.377001 -5.377361,5.377001 -2.593505,0 -4.784105,-1.85725 -5.283772,-4.317751 l -7.304644,-3.019418 c 2.261982,7.975254 9.596764,13.822505 18.30999,13.822505 C 73.978708,95.845011 82.5,87.337758 82.5,76.845006 82.5,66.352252 73.977121,57.845 63.466682,57.845 Z m -7.041327,28.832508 -2.336535,-0.965833 c 0.415596,0.85975 1.132577,1.58175 2.084321,1.979168 2.057356,0.853416 4.430374,-0.120335 5.285359,-2.177085 0.417181,-0.9975 0.418768,-2.088416 0.0079,-3.085918 -0.410836,-0.9975 -1.18968,-1.774917 -2.184256,-2.18975 -0.989814,-0.411667 -2.046251,-0.39425 -2.97896,-0.0475 l 2.415844,0.9975 c 1.516448,0.633334 2.235016,2.375002 1.600519,3.887084 -0.629739,1.515251 -2.374604,2.232501 -3.892637,1.602334 z M 74.532318,71.947753 c 0,-2.6315 -2.146186,-4.773751 -4.782518,-4.773751 -2.641094,0 -4.78252,2.142251 -4.78252,4.773751 0,2.636251 2.141426,4.773753 4.78252,4.773753 2.637919,0 4.782518,-2.137501 4.782518,-4.773753 z m -8.364254,-0.0079 c 0,-1.982335 1.606863,-3.587835 3.592837,-3.587835 1.981217,0 3.594425,1.6055 3.594425,3.587835 0,1.980749 -1.613208,3.586251 -3.594425,3.586251 -1.98756,0 -3.592837,-1.605501 -3.592837,-3.586251 z"
     id="path4"
     style="fill:#7f3fbf;fill-opacity:1;stroke-width:1.58479" />
</svg>
