<?xml version="1.0" encoding="UTF-8" standalone="no"?>
<svg
   height="128px"
   viewBox="0 0 128 128"
   width="128px"
   version="1.1"
   id="svg21"
   sodipodi:docname="folder.svg"
   inkscape:version="1.2.2 (b0a8486541, 2022-12-01)"
   xmlns:inkscape="http://www.inkscape.org/namespaces/inkscape"
   xmlns:sodipodi="http://sodipodi.sourceforge.net/DTD/sodipodi-0.dtd"
   xmlns="http://www.w3.org/2000/svg"
   xmlns:svg="http://www.w3.org/2000/svg">
  <defs
     id="defs25" />
  <sodipodi:namedview
     id="namedview23"
     pagecolor="#ffffff"
     bordercolor="#000000"
     borderopacity="0.25"
     inkscape:showpageshadow="2"
     inkscape:pageopacity="0.0"
     inkscape:pagecheckerboard="0"
     inkscape:deskcolor="#d1d1d1"
     showgrid="false"
     inkscape:zoom="5.6328125"
     inkscape:cx="64.266297"
     inkscape:cy="64.177531"
     inkscape:window-width="1920"
     inkscape:window-height="1019"
     inkscape:window-x="0"
     inkscape:window-y="0"
     inkscape:window-maximized="1"
     inkscape:current-layer="svg21" />
  <linearGradient
     id="a"
     gradientTransform="matrix(0.45451 0 0 0.455522 -1210.292114 616.172607)"
     gradientUnits="userSpaceOnUse"
     x1="2689.251953"
     x2="2918.069824"
     y1="-1106.802979"
     y2="-1106.802979">
    <stop
       offset="0"
       stop-color="#7f3fbf"
       id="stop2"
       style="stop-color:#7f3fbf;stop-opacity:1;" />
    <stop
       offset="0.0576991"
       stop-color="#be9ede"
       id="stop4"
       style="stop-color:#be9ede;stop-opacity:1;" />
    <stop
       offset="0.122204"
       stop-color="#7f3fbf"
       id="stop6"
       style="stop-color:#7f3fbf;stop-opacity:1;" />
    <stop
       offset="0.87330598"
       stop-color="#7f3fbf"
       id="stop8"
       style="stop-color:#7f3fbf;stop-opacity:1;" />
    <stop
       offset="0.95599699"
       stop-color="#be9ede"
       id="stop10"
       style="stop-color:#be9ede;stop-opacity:1;" />
    <stop
       offset="1"
       stop-color="#7f3fbf"
       id="stop12"
       style="stop-color:#7f3fbf;stop-opacity:1;" />
  </linearGradient>
  <path
     d="m 21.976562 12 c -5.527343 0 -9.976562 4.460938 -9.976562 10 v 86.03125 c 0 5.542969 4.449219 10 9.976562 10 h 84.042969 c 5.53125 0 9.980469 -4.457031 9.980469 -10 v -72.085938 c 0 -6.628906 -5.359375 -12 -11.972656 -12 h -46.027344 c -2.453125 0 -4.695312 -1.386718 -5.796875 -3.582031 l -1.503906 -2.992187 c -1.65625 -3.292969 -5.019531 -5.371094 -8.699219 -5.371094 z m 0 0"
     fill="#7f3fbf"
     id="path15"
     style="fill:#7f3fbf;fill-opacity:1" />
  <path
     d="m 65.976562 36 c -2.746093 0 -5.226562 1.101562 -7.027343 2.890625 c -2.273438 2.253906 -5.382813 5.109375 -8.632813 5.109375 h -28.339844 c -5.527343 0 -9.976562 4.460938 -9.976562 10 v 54.03125 c 0 5.542969 4.449219 10 9.976562 10 h 84.042969 c 5.53125 0 9.980469 -4.457031 9.980469 -10 v -62.03125 c 0 -5.539062 -4.449219 -10 -9.980469 -10 z m 0 0"
     fill="url(#a)"
     id="path17" />
  <path
     d="m 65.976562 32 c -2.746093 0 -5.226562 1.101562 -7.027343 2.890625 c -2.273438 2.253906 -5.382813 5.109375 -8.632813 5.109375 h -28.339844 c -5.527343 0 -9.976562 4.460938 -9.976562 10 v 55.976562 c 0 5.539063 4.449219 10 9.976562 10 h 84.042969 c 5.53125 0 9.980469 -4.460937 9.980469 -10 v -63.976562 c 0 -5.539062 -4.449219 -10 -9.980469 -10 z m 0 0"
     fill="#be9ede"
     id="path19"
     style="fill:#be9ede;fill-opacity:1" />
  <path
     style="fill:#7f3fbf;fill-opacity:1;stroke-width:0.177531"
     d="m 43.08906,84.907264 c 0.826871,-6.181004 4.265955,-11.75657 9.164622,-14.858012 0.756727,-0.479099 1.375867,-0.949682 1.375867,-1.045741 0,-0.09606 -0.798505,-1.554533 -1.774456,-3.241052 -1.021423,-1.7651 -1.731324,-3.178799 -1.67282,-3.331259 0.0559,-0.145673 0.225419,-0.31236 0.376708,-0.370415 0.491368,-0.188556 0.435223,-0.26965 3.571254,5.158299 l 0.729866,1.263277 2.011212,-0.685164 c 5.012956,-1.707776 10.328302,-1.58414 15.171963,0.352903 l 0.926903,0.370681 0.741084,-1.282487 c 3.151838,-5.45442 3.090786,-5.366187 3.582473,-5.177509 0.151291,0.05806 0.32081,0.224742 0.376709,0.370415 0.05853,0.152516 -0.657524,1.576748 -1.688151,3.357753 -0.984384,1.701092 -1.762917,3.164898 -1.730074,3.252903 0.03284,0.088 0.789686,0.647032 1.681874,1.242283 2.01357,1.343417 4.617049,4.040287 5.797246,6.005204 1.551403,2.582935 2.742809,5.923306 3.010429,8.44039 l 0.08966,0.843273 H 63.915712 43 Z M 55.57285,79.09459 c 0.658567,-0.658567 0.640269,-1.848113 -0.03887,-2.527258 -0.390635,-0.390634 -0.65549,-0.492245 -1.283067,-0.492245 -0.627576,0 -0.892432,0.101611 -1.283066,0.492245 -0.889702,0.889702 -0.583301,2.48742 0.572941,2.987581 0.573232,0.247965 1.543594,0.02815 2.032067,-0.460323 z m 19.350902,0 c 0.658567,-0.658567 0.640269,-1.848113 -0.03888,-2.527258 -0.390635,-0.390634 -0.65549,-0.492245 -1.283066,-0.492245 -0.627577,0 -0.892432,0.101611 -1.283066,0.492245 -0.889703,0.889702 -0.583302,2.48742 0.572941,2.987581 0.573232,0.247965 1.543593,0.02815 2.032067,-0.460323 z"
     id="path1810" />
</svg>
