<?xml version="1.0" encoding="UTF-8" standalone="no"?>
<svg
   height="128px"
   viewBox="0 0 128 128"
   width="128px"
   version="1.1"
   id="svg21"
   sodipodi:docname="folder-learning.svg"
   inkscape:version="1.2.2 (b0a8486541, 2022-12-01)"
   xmlns:inkscape="http://www.inkscape.org/namespaces/inkscape"
   xmlns:sodipodi="http://sodipodi.sourceforge.net/DTD/sodipodi-0.dtd"
   xmlns="http://www.w3.org/2000/svg"
   xmlns:svg="http://www.w3.org/2000/svg">
  <defs
     id="defs25" />
  <sodipodi:namedview
     id="namedview23"
     pagecolor="#ffffff"
     bordercolor="#000000"
     borderopacity="0.25"
     inkscape:showpageshadow="2"
     inkscape:pageopacity="0.0"
     inkscape:pagecheckerboard="0"
     inkscape:deskcolor="#d1d1d1"
     showgrid="false"
     inkscape:zoom="5.6328125"
     inkscape:cx="64.355062"
     inkscape:cy="64.443828"
     inkscape:window-width="1920"
     inkscape:window-height="1019"
     inkscape:window-x="0"
     inkscape:window-y="0"
     inkscape:window-maximized="1"
     inkscape:current-layer="svg21" />
  <linearGradient
     id="a"
     gradientTransform="matrix(0.45451 0 0 0.455522 -1210.292114 616.172607)"
     gradientUnits="userSpaceOnUse"
     x1="2689.251953"
     x2="2918.069824"
     y1="-1106.802979"
     y2="-1106.802979">
    <stop
       offset="0"
       stop-color="#7f3fbf"
       id="stop2"
       style="stop-color:#7f3fbf;stop-opacity:1;" />
    <stop
       offset="0.0576991"
       stop-color="#be9ede"
       id="stop4"
       style="stop-color:#be9ede;stop-opacity:1;" />
    <stop
       offset="0.122204"
       stop-color="#7f3fbf"
       id="stop6"
       style="stop-color:#7f3fbf;stop-opacity:1;" />
    <stop
       offset="0.87330598"
       stop-color="#7f3fbf"
       id="stop8"
       style="stop-color:#7f3fbf;stop-opacity:1;" />
    <stop
       offset="0.95599699"
       stop-color="#be9ede"
       id="stop10"
       style="stop-color:#be9ede;stop-opacity:1;" />
    <stop
       offset="1"
       stop-color="#7f3fbf"
       id="stop12"
       style="stop-color:#7f3fbf;stop-opacity:1;" />
  </linearGradient>
  <path
     d="m 21.976562 12 c -5.527343 0 -9.976562 4.460938 -9.976562 10 v 86.03125 c 0 5.542969 4.449219 10 9.976562 10 h 84.042969 c 5.53125 0 9.980469 -4.457031 9.980469 -10 v -72.085938 c 0 -6.628906 -5.359375 -12 -11.972656 -12 h -46.027344 c -2.453125 0 -4.695312 -1.386718 -5.796875 -3.582031 l -1.503906 -2.992187 c -1.65625 -3.292969 -5.019531 -5.371094 -8.699219 -5.371094 z m 0 0"
     fill="#7f3fbf"
     id="path15"
     style="fill:#7f3fbf;fill-opacity:1" />
  <path
     d="m 65.976562 36 c -2.746093 0 -5.226562 1.101562 -7.027343 2.890625 c -2.273438 2.253906 -5.382813 5.109375 -8.632813 5.109375 h -28.339844 c -5.527343 0 -9.976562 4.460938 -9.976562 10 v 54.03125 c 0 5.542969 4.449219 10 9.976562 10 h 84.042969 c 5.53125 0 9.980469 -4.457031 9.980469 -10 v -62.03125 c 0 -5.539062 -4.449219 -10 -9.980469 -10 z m 0 0"
     fill="url(#a)"
     id="path17" />
  <path
     d="m 65.976562 32 c -2.746093 0 -5.226562 1.101562 -7.027343 2.890625 c -2.273438 2.253906 -5.382813 5.109375 -8.632813 5.109375 h -28.339844 c -5.527343 0 -9.976562 4.460938 -9.976562 10 v 55.976562 c 0 5.539063 4.449219 10 9.976562 10 h 84.042969 c 5.53125 0 9.980469 -4.460937 9.980469 -10 v -63.976562 c 0 -5.539062 -4.449219 -10 -9.980469 -10 z m 0 0"
     fill="#be9ede"
     id="path19"
     style="fill:#be9ede;fill-opacity:1" />
  <path
     d="m 66.000579,60 c -0.607485,0 -1.20747,0.105 -1.777462,0.307492 l -21.03699,7.59732 c -0.712485,0.262493 -1.18497,0.937478 -1.18497,1.694955 0,0.757485 0.472485,1.43247 1.18497,1.694963 l 4.342395,1.567462 c -1.22997,1.934955 -1.927455,4.222395 -1.927455,6.629835 v 2.107455 c 0,2.129947 -0.809977,4.327394 -1.672455,6.059849 -0.487492,0.974978 -1.042477,1.934955 -1.687462,2.819933 -0.239993,0.322492 -0.307493,0.742485 -0.1725,1.124977 0.135,0.382485 0.449992,0.667485 0.839985,0.764978 l 4.79988,1.19997 c 0.314992,0.0825 0.652485,0.0225 0.929977,-0.149993 0.2775,-0.1725 0.472493,-0.457492 0.532493,-0.779985 0.644985,-3.209917 0.322492,-6.08985 -0.1575,-8.152304 -0.239993,-1.06497 -0.562485,-2.152448 -1.012478,-3.149918 v -1.844962 c 0,-2.26494 0.764985,-4.402388 2.092455,-6.11235 0.967478,-1.16247 2.219947,-2.099947 3.68991,-2.677432 l 11.774714,-4.627388 c 0.614985,-0.24 1.31247,0.06 1.552463,0.674978 0.239992,0.614985 -0.06,1.31247 -0.674985,1.552462 l -11.774715,4.627395 c -0.929977,0.367485 -1.747455,0.929977 -2.41494,1.619955 l 11.969708,4.319895 c 0.569992,0.2025 1.169977,0.3075 1.777462,0.3075 0.607485,0 1.20747,-0.105 1.777455,-0.3075 L 88.815031,71.29473 c 0.712477,-0.254993 1.18497,-0.937478 1.18497,-1.694963 0,-0.757477 -0.472493,-1.432462 -1.18497,-1.694955 L 67.778034,60.307492 C 67.208049,60.105 66.608064,60 66.000579,60 Z M 51.600925,88.199324 c 0,2.647432 6.449842,5.399865 14.399654,5.399865 7.949805,0 14.399654,-2.752433 14.399654,-5.399865 L 79.252756,77.294587 68.588011,81.149489 c -0.832477,0.299993 -1.709955,0.449993 -2.587432,0.449993 -0.877478,0 -1.762462,-0.15 -2.58744,-0.449993 L 52.748394,77.294587 Z"
     id="path796"
     style="stroke-width:0.0749982;fill:#7f3fbf;fill-opacity:1" />
</svg>
